<mxfile host="app.diagrams.net" modified="2022-05-09T21:12:38.227Z" agent="5.0 (Windows NT 10.0; Win64; x64) AppleWebKit/537.36 (KHTML, like Gecko) Chrome/101.0.4951.54 Safari/537.36" etag="5CzMWPRMIbk0wyDFowIH" version="18.0.2" type="github">
  <diagram id="l9hWmQp6AftxNK4oL_-H" name="Page-1">
    <mxGraphModel dx="2893" dy="2669" grid="1" gridSize="10" guides="1" tooltips="1" connect="1" arrows="1" fold="1" page="1" pageScale="1" pageWidth="827" pageHeight="1169" math="0" shadow="0">
      <root>
        <mxCell id="0" />
        <mxCell id="1" parent="0" />
        <mxCell id="z0HUCPm2Fse18PRAuFVQ-1" style="edgeStyle=orthogonalEdgeStyle;rounded=0;orthogonalLoop=1;jettySize=auto;html=1;entryX=0.5;entryY=0;entryDx=0;entryDy=0;" parent="1" source="z0HUCPm2Fse18PRAuFVQ-2" target="z0HUCPm2Fse18PRAuFVQ-4" edge="1">
          <mxGeometry relative="1" as="geometry" />
        </mxCell>
        <mxCell id="z0HUCPm2Fse18PRAuFVQ-2" value="Inicio" style="ellipse;whiteSpace=wrap;html=1;fillColor=#e1d5e7;strokeColor=#9673a6;" parent="1" vertex="1">
          <mxGeometry x="400" y="-90" width="80" height="50" as="geometry" />
        </mxCell>
        <mxCell id="z0HUCPm2Fse18PRAuFVQ-3" value="" style="edgeStyle=orthogonalEdgeStyle;rounded=0;orthogonalLoop=1;jettySize=auto;html=1;" parent="1" source="z0HUCPm2Fse18PRAuFVQ-4" target="z0HUCPm2Fse18PRAuFVQ-10" edge="1">
          <mxGeometry relative="1" as="geometry" />
        </mxCell>
        <mxCell id="z0HUCPm2Fse18PRAuFVQ-4" value="Ingreso de path/ruta" style="rounded=1;whiteSpace=wrap;html=1;" parent="1" vertex="1">
          <mxGeometry x="380" y="10" width="120" height="60" as="geometry" />
        </mxCell>
        <mxCell id="z0HUCPm2Fse18PRAuFVQ-5" style="edgeStyle=orthogonalEdgeStyle;rounded=0;orthogonalLoop=1;jettySize=auto;html=1;entryX=0.5;entryY=0;entryDx=0;entryDy=0;" parent="1" source="z0HUCPm2Fse18PRAuFVQ-7" target="z0HUCPm2Fse18PRAuFVQ-12" edge="1">
          <mxGeometry relative="1" as="geometry" />
        </mxCell>
        <mxCell id="z0HUCPm2Fse18PRAuFVQ-6" style="edgeStyle=orthogonalEdgeStyle;rounded=0;orthogonalLoop=1;jettySize=auto;html=1;entryX=0;entryY=0.5;entryDx=0;entryDy=0;" parent="1" source="z0HUCPm2Fse18PRAuFVQ-7" target="z0HUCPm2Fse18PRAuFVQ-60" edge="1">
          <mxGeometry relative="1" as="geometry" />
        </mxCell>
        <mxCell id="z0HUCPm2Fse18PRAuFVQ-7" value="¿Existe la ruta?" style="rhombus;whiteSpace=wrap;html=1;" parent="1" vertex="1">
          <mxGeometry x="330" y="330" width="80" height="80" as="geometry" />
        </mxCell>
        <mxCell id="z0HUCPm2Fse18PRAuFVQ-8" value="" style="edgeStyle=orthogonalEdgeStyle;rounded=0;orthogonalLoop=1;jettySize=auto;html=1;entryX=0;entryY=0.5;entryDx=0;entryDy=0;" parent="1" source="z0HUCPm2Fse18PRAuFVQ-10" target="z0HUCPm2Fse18PRAuFVQ-7" edge="1">
          <mxGeometry relative="1" as="geometry">
            <mxPoint x="320" y="140" as="targetPoint" />
            <Array as="points">
              <mxPoint x="250" y="140" />
              <mxPoint x="250" y="370" />
            </Array>
          </mxGeometry>
        </mxCell>
        <mxCell id="z0HUCPm2Fse18PRAuFVQ-9" value="" style="edgeStyle=orthogonalEdgeStyle;rounded=0;orthogonalLoop=1;jettySize=auto;html=1;" parent="1" source="z0HUCPm2Fse18PRAuFVQ-10" target="z0HUCPm2Fse18PRAuFVQ-72" edge="1">
          <mxGeometry relative="1" as="geometry" />
        </mxCell>
        <mxCell id="z0HUCPm2Fse18PRAuFVQ-10" value="¿es asoluta?" style="rhombus;whiteSpace=wrap;html=1;" parent="1" vertex="1">
          <mxGeometry x="400" y="100" width="80" height="80" as="geometry" />
        </mxCell>
        <mxCell id="z0HUCPm2Fse18PRAuFVQ-11" style="edgeStyle=orthogonalEdgeStyle;rounded=0;orthogonalLoop=1;jettySize=auto;html=1;exitX=0.5;exitY=1;exitDx=0;exitDy=0;entryX=0.5;entryY=0;entryDx=0;entryDy=0;" parent="1" source="z0HUCPm2Fse18PRAuFVQ-12" target="z0HUCPm2Fse18PRAuFVQ-14" edge="1">
          <mxGeometry relative="1" as="geometry" />
        </mxCell>
        <mxCell id="z0HUCPm2Fse18PRAuFVQ-12" value="¿es un directorio?" style="rhombus;whiteSpace=wrap;html=1;" parent="1" vertex="1">
          <mxGeometry x="330" y="480" width="80" height="80" as="geometry" />
        </mxCell>
        <mxCell id="z0HUCPm2Fse18PRAuFVQ-13" style="edgeStyle=orthogonalEdgeStyle;rounded=0;orthogonalLoop=1;jettySize=auto;html=1;exitX=0;exitY=0.5;exitDx=0;exitDy=0;entryX=0;entryY=0.5;entryDx=0;entryDy=0;" parent="1" source="z0HUCPm2Fse18PRAuFVQ-14" target="z0HUCPm2Fse18PRAuFVQ-12" edge="1">
          <mxGeometry relative="1" as="geometry" />
        </mxCell>
        <mxCell id="z0HUCPm2Fse18PRAuFVQ-14" value="Recorrer y listar el contenido del directorio" style="rounded=1;whiteSpace=wrap;html=1;" parent="1" vertex="1">
          <mxGeometry x="310" y="635" width="120" height="60" as="geometry" />
        </mxCell>
        <mxCell id="z0HUCPm2Fse18PRAuFVQ-15" value="si" style="text;html=1;strokeColor=none;fillColor=none;align=center;verticalAlign=middle;whiteSpace=wrap;rounded=0;" parent="1" vertex="1">
          <mxGeometry x="380" y="565" width="60" height="30" as="geometry" />
        </mxCell>
        <mxCell id="z0HUCPm2Fse18PRAuFVQ-16" style="edgeStyle=orthogonalEdgeStyle;rounded=0;orthogonalLoop=1;jettySize=auto;html=1;entryX=0.5;entryY=0;entryDx=0;entryDy=0;exitX=1;exitY=0.5;exitDx=0;exitDy=0;" parent="1" source="z0HUCPm2Fse18PRAuFVQ-12" target="z0HUCPm2Fse18PRAuFVQ-19" edge="1">
          <mxGeometry relative="1" as="geometry">
            <mxPoint x="690" y="520.0588235294119" as="sourcePoint" />
            <Array as="points">
              <mxPoint x="670" y="520" />
            </Array>
          </mxGeometry>
        </mxCell>
        <mxCell id="z0HUCPm2Fse18PRAuFVQ-17" style="edgeStyle=orthogonalEdgeStyle;rounded=0;orthogonalLoop=1;jettySize=auto;html=1;entryX=0;entryY=0.5;entryDx=0;entryDy=0;" parent="1" source="z0HUCPm2Fse18PRAuFVQ-19" target="z0HUCPm2Fse18PRAuFVQ-64" edge="1">
          <mxGeometry relative="1" as="geometry" />
        </mxCell>
        <mxCell id="z0HUCPm2Fse18PRAuFVQ-18" style="edgeStyle=orthogonalEdgeStyle;rounded=0;orthogonalLoop=1;jettySize=auto;html=1;entryX=0.5;entryY=0;entryDx=0;entryDy=0;" parent="1" source="z0HUCPm2Fse18PRAuFVQ-19" target="z0HUCPm2Fse18PRAuFVQ-67" edge="1">
          <mxGeometry relative="1" as="geometry" />
        </mxCell>
        <mxCell id="z0HUCPm2Fse18PRAuFVQ-19" value="¿La extensión del archivo es .md?" style="rhombus;whiteSpace=wrap;html=1;" parent="1" vertex="1">
          <mxGeometry x="630" y="530" width="80" height="80" as="geometry" />
        </mxCell>
        <mxCell id="z0HUCPm2Fse18PRAuFVQ-20" value="si" style="text;html=1;strokeColor=none;fillColor=none;align=center;verticalAlign=middle;whiteSpace=wrap;rounded=0;" parent="1" vertex="1">
          <mxGeometry x="720" y="530" width="60" height="30" as="geometry" />
        </mxCell>
        <mxCell id="z0HUCPm2Fse18PRAuFVQ-21" style="edgeStyle=orthogonalEdgeStyle;rounded=0;orthogonalLoop=1;jettySize=auto;html=1;exitX=1;exitY=0.5;exitDx=0;exitDy=0;entryX=0;entryY=0.5;entryDx=0;entryDy=0;" parent="1" source="z0HUCPm2Fse18PRAuFVQ-23" target="z0HUCPm2Fse18PRAuFVQ-25" edge="1">
          <mxGeometry relative="1" as="geometry" />
        </mxCell>
        <mxCell id="z0HUCPm2Fse18PRAuFVQ-22" value="" style="edgeStyle=orthogonalEdgeStyle;rounded=0;orthogonalLoop=1;jettySize=auto;html=1;" parent="1" source="z0HUCPm2Fse18PRAuFVQ-23" target="z0HUCPm2Fse18PRAuFVQ-58" edge="1">
          <mxGeometry relative="1" as="geometry" />
        </mxCell>
        <mxCell id="z0HUCPm2Fse18PRAuFVQ-23" value="¿Hay links en los archivos?" style="rhombus;whiteSpace=wrap;html=1;" parent="1" vertex="1">
          <mxGeometry x="980" y="530" width="80" height="80" as="geometry" />
        </mxCell>
        <mxCell id="z0HUCPm2Fse18PRAuFVQ-24" style="edgeStyle=orthogonalEdgeStyle;rounded=0;orthogonalLoop=1;jettySize=auto;html=1;entryX=0;entryY=0.5;entryDx=0;entryDy=0;" parent="1" source="z0HUCPm2Fse18PRAuFVQ-25" target="z0HUCPm2Fse18PRAuFVQ-70" edge="1">
          <mxGeometry relative="1" as="geometry" />
        </mxCell>
        <mxCell id="z0HUCPm2Fse18PRAuFVQ-25" value="Extraer los links" style="rounded=1;whiteSpace=wrap;html=1;" parent="1" vertex="1">
          <mxGeometry x="1130" y="540" width="120" height="60" as="geometry" />
        </mxCell>
        <mxCell id="z0HUCPm2Fse18PRAuFVQ-26" value="no" style="text;html=1;strokeColor=none;fillColor=none;align=center;verticalAlign=middle;whiteSpace=wrap;rounded=0;" parent="1" vertex="1">
          <mxGeometry x="930" y="610" width="60" height="30" as="geometry" />
        </mxCell>
        <mxCell id="z0HUCPm2Fse18PRAuFVQ-27" value="si" style="text;html=1;strokeColor=none;fillColor=none;align=center;verticalAlign=middle;whiteSpace=wrap;rounded=0;" parent="1" vertex="1">
          <mxGeometry x="1060" y="530" width="60" height="30" as="geometry" />
        </mxCell>
        <mxCell id="z0HUCPm2Fse18PRAuFVQ-28" style="edgeStyle=orthogonalEdgeStyle;rounded=0;orthogonalLoop=1;jettySize=auto;html=1;entryX=0.5;entryY=0;entryDx=0;entryDy=0;" parent="1" source="z0HUCPm2Fse18PRAuFVQ-32" target="z0HUCPm2Fse18PRAuFVQ-33" edge="1">
          <mxGeometry relative="1" as="geometry" />
        </mxCell>
        <mxCell id="z0HUCPm2Fse18PRAuFVQ-29" style="edgeStyle=orthogonalEdgeStyle;rounded=0;orthogonalLoop=1;jettySize=auto;html=1;" parent="1" source="z0HUCPm2Fse18PRAuFVQ-32" target="z0HUCPm2Fse18PRAuFVQ-37" edge="1">
          <mxGeometry relative="1" as="geometry">
            <Array as="points">
              <mxPoint x="1510" y="490" />
              <mxPoint x="1700" y="490" />
            </Array>
          </mxGeometry>
        </mxCell>
        <mxCell id="z0HUCPm2Fse18PRAuFVQ-30" style="edgeStyle=orthogonalEdgeStyle;rounded=0;orthogonalLoop=1;jettySize=auto;html=1;entryX=0.5;entryY=0;entryDx=0;entryDy=0;" parent="1" source="z0HUCPm2Fse18PRAuFVQ-32" target="z0HUCPm2Fse18PRAuFVQ-39" edge="1">
          <mxGeometry relative="1" as="geometry">
            <Array as="points">
              <mxPoint x="1510" y="460" />
              <mxPoint x="1890" y="460" />
            </Array>
          </mxGeometry>
        </mxCell>
        <mxCell id="z0HUCPm2Fse18PRAuFVQ-31" style="edgeStyle=orthogonalEdgeStyle;rounded=0;orthogonalLoop=1;jettySize=auto;html=1;entryX=0.5;entryY=0;entryDx=0;entryDy=0;exitX=1;exitY=1;exitDx=0;exitDy=0;" parent="1" source="z0HUCPm2Fse18PRAuFVQ-35" target="z0HUCPm2Fse18PRAuFVQ-54" edge="1">
          <mxGeometry relative="1" as="geometry">
            <Array as="points">
              <mxPoint x="1510" y="425" />
              <mxPoint x="2060" y="425" />
            </Array>
            <mxPoint x="1510" y="445" as="sourcePoint" />
            <mxPoint x="2060" y="445" as="targetPoint" />
          </mxGeometry>
        </mxCell>
        <mxCell id="z0HUCPm2Fse18PRAuFVQ-32" value="¿Ingresó option?" style="rhombus;whiteSpace=wrap;html=1;" parent="1" vertex="1">
          <mxGeometry x="1470" y="530" width="80" height="80" as="geometry" />
        </mxCell>
        <mxCell id="z0HUCPm2Fse18PRAuFVQ-33" value="Se devuelve un promesa con href, text y file." style="rounded=1;whiteSpace=wrap;html=1;" parent="1" vertex="1">
          <mxGeometry x="1450" y="670" width="120" height="60" as="geometry" />
        </mxCell>
        <mxCell id="z0HUCPm2Fse18PRAuFVQ-34" value="no" style="text;html=1;strokeColor=none;fillColor=none;align=center;verticalAlign=middle;whiteSpace=wrap;rounded=0;" parent="1" vertex="1">
          <mxGeometry x="1450" y="620" width="60" height="30" as="geometry" />
        </mxCell>
        <mxCell id="z0HUCPm2Fse18PRAuFVQ-35" value="si" style="text;html=1;strokeColor=none;fillColor=none;align=center;verticalAlign=middle;whiteSpace=wrap;rounded=0;" parent="1" vertex="1">
          <mxGeometry x="1450" y="490" width="60" height="30" as="geometry" />
        </mxCell>
        <mxCell id="z0HUCPm2Fse18PRAuFVQ-36" style="edgeStyle=orthogonalEdgeStyle;rounded=0;orthogonalLoop=1;jettySize=auto;html=1;entryX=0.5;entryY=0;entryDx=0;entryDy=0;" parent="1" source="z0HUCPm2Fse18PRAuFVQ-37" target="z0HUCPm2Fse18PRAuFVQ-47" edge="1">
          <mxGeometry relative="1" as="geometry" />
        </mxCell>
        <mxCell id="z0HUCPm2Fse18PRAuFVQ-37" value="¿Ingresó --validate?" style="rhombus;whiteSpace=wrap;html=1;" parent="1" vertex="1">
          <mxGeometry x="1660" y="530" width="80" height="80" as="geometry" />
        </mxCell>
        <mxCell id="z0HUCPm2Fse18PRAuFVQ-38" value="" style="edgeStyle=orthogonalEdgeStyle;rounded=0;orthogonalLoop=1;jettySize=auto;html=1;" parent="1" source="z0HUCPm2Fse18PRAuFVQ-39" target="z0HUCPm2Fse18PRAuFVQ-78" edge="1">
          <mxGeometry relative="1" as="geometry" />
        </mxCell>
        <mxCell id="z0HUCPm2Fse18PRAuFVQ-39" value="¿Ingresó --stats?" style="rhombus;whiteSpace=wrap;html=1;" parent="1" vertex="1">
          <mxGeometry x="1850" y="530" width="80" height="80" as="geometry" />
        </mxCell>
        <mxCell id="z0HUCPm2Fse18PRAuFVQ-40" style="edgeStyle=orthogonalEdgeStyle;rounded=0;orthogonalLoop=1;jettySize=auto;html=1;entryX=1;entryY=0.5;entryDx=0;entryDy=0;" parent="1" source="z0HUCPm2Fse18PRAuFVQ-42" edge="1">
          <mxGeometry relative="1" as="geometry">
            <Array as="points">
              <mxPoint x="1890" y="1060" />
              <mxPoint x="1030" y="1060" />
              <mxPoint x="1030" y="970" />
            </Array>
            <mxPoint x="1080.000000000009" y="970" as="targetPoint" />
          </mxGeometry>
        </mxCell>
        <mxCell id="z0HUCPm2Fse18PRAuFVQ-41" value="" style="edgeStyle=orthogonalEdgeStyle;rounded=0;orthogonalLoop=1;jettySize=auto;html=1;" parent="1" source="z0HUCPm2Fse18PRAuFVQ-42" target="z0HUCPm2Fse18PRAuFVQ-56" edge="1">
          <mxGeometry relative="1" as="geometry" />
        </mxCell>
        <mxCell id="z0HUCPm2Fse18PRAuFVQ-42" value="&lt;span style=&quot;color: rgb(0, 0, 0); font-family: Helvetica; font-size: 12px; font-style: normal; font-variant-ligatures: normal; font-variant-caps: normal; font-weight: 400; letter-spacing: normal; orphans: 2; text-align: center; text-indent: 0px; text-transform: none; widows: 2; word-spacing: 0px; -webkit-text-stroke-width: 0px; background-color: rgb(248, 249, 250); text-decoration-thickness: initial; text-decoration-style: initial; text-decoration-color: initial; float: none; display: inline !important;&quot;&gt;Obtener el número de links totales y únicos.&lt;/span&gt;" style="rounded=1;whiteSpace=wrap;html=1;" parent="1" vertex="1">
          <mxGeometry x="1830" y="890" width="120" height="60" as="geometry" />
        </mxCell>
        <mxCell id="z0HUCPm2Fse18PRAuFVQ-43" value="si" style="text;html=1;strokeColor=none;fillColor=none;align=center;verticalAlign=middle;whiteSpace=wrap;rounded=0;" parent="1" vertex="1">
          <mxGeometry x="1650" y="605" width="60" height="30" as="geometry" />
        </mxCell>
        <mxCell id="z0HUCPm2Fse18PRAuFVQ-44" value="si" style="text;html=1;strokeColor=none;fillColor=none;align=center;verticalAlign=middle;whiteSpace=wrap;rounded=0;" parent="1" vertex="1">
          <mxGeometry x="1840" y="615" width="60" height="30" as="geometry" />
        </mxCell>
        <mxCell id="z0HUCPm2Fse18PRAuFVQ-45" value="" style="edgeStyle=orthogonalEdgeStyle;rounded=0;orthogonalLoop=1;jettySize=auto;html=1;" parent="1" source="z0HUCPm2Fse18PRAuFVQ-47" target="z0HUCPm2Fse18PRAuFVQ-33" edge="1">
          <mxGeometry relative="1" as="geometry" />
        </mxCell>
        <mxCell id="z0HUCPm2Fse18PRAuFVQ-46" value="" style="edgeStyle=orthogonalEdgeStyle;rounded=0;orthogonalLoop=1;jettySize=auto;html=1;" parent="1" source="z0HUCPm2Fse18PRAuFVQ-47" target="z0HUCPm2Fse18PRAuFVQ-75" edge="1">
          <mxGeometry relative="1" as="geometry" />
        </mxCell>
        <mxCell id="z0HUCPm2Fse18PRAuFVQ-47" value="¿es true?" style="rhombus;whiteSpace=wrap;html=1;" parent="1" vertex="1">
          <mxGeometry x="1660" y="660" width="80" height="80" as="geometry" />
        </mxCell>
        <mxCell id="z0HUCPm2Fse18PRAuFVQ-48" style="edgeStyle=orthogonalEdgeStyle;rounded=0;orthogonalLoop=1;jettySize=auto;html=1;entryX=1;entryY=0.5;entryDx=0;entryDy=0;" parent="1" source="z0HUCPm2Fse18PRAuFVQ-50" target="z0HUCPm2Fse18PRAuFVQ-83" edge="1">
          <mxGeometry relative="1" as="geometry">
            <mxPoint x="1080.0000000000086" y="970" as="targetPoint" />
            <Array as="points">
              <mxPoint x="1700" y="1060" />
              <mxPoint x="1030" y="1060" />
              <mxPoint x="1030" y="970" />
            </Array>
          </mxGeometry>
        </mxCell>
        <mxCell id="z0HUCPm2Fse18PRAuFVQ-49" value="" style="edgeStyle=orthogonalEdgeStyle;rounded=0;orthogonalLoop=1;jettySize=auto;html=1;" parent="1" source="z0HUCPm2Fse18PRAuFVQ-50" target="z0HUCPm2Fse18PRAuFVQ-42" edge="1">
          <mxGeometry relative="1" as="geometry" />
        </mxCell>
        <mxCell id="z0HUCPm2Fse18PRAuFVQ-50" value="&lt;span style=&quot;color: rgb(0, 0, 0); font-family: Helvetica; font-size: 12px; font-style: normal; font-variant-ligatures: normal; font-variant-caps: normal; font-weight: 400; letter-spacing: normal; orphans: 2; text-align: center; text-indent: 0px; text-transform: none; widows: 2; word-spacing: 0px; -webkit-text-stroke-width: 0px; background-color: rgb(248, 249, 250); text-decoration-thickness: initial; text-decoration-style: initial; text-decoration-color: initial; float: none; display: inline !important;&quot;&gt;Se devuelve un promesa con href, text, file, status y ok( ok/failed)&lt;/span&gt;" style="rounded=1;whiteSpace=wrap;html=1;" parent="1" vertex="1">
          <mxGeometry x="1640" y="890" width="120" height="60" as="geometry" />
        </mxCell>
        <mxCell id="z0HUCPm2Fse18PRAuFVQ-51" value="si" style="text;html=1;strokeColor=none;fillColor=none;align=center;verticalAlign=middle;whiteSpace=wrap;rounded=0;" parent="1" vertex="1">
          <mxGeometry x="1650" y="710" width="30" height="30" as="geometry" />
        </mxCell>
        <mxCell id="z0HUCPm2Fse18PRAuFVQ-52" value="no" style="text;html=1;strokeColor=none;fillColor=none;align=center;verticalAlign=middle;whiteSpace=wrap;rounded=0;" parent="1" vertex="1">
          <mxGeometry x="1570" y="645" width="60" height="30" as="geometry" />
        </mxCell>
        <mxCell id="z0HUCPm2Fse18PRAuFVQ-53" style="edgeStyle=orthogonalEdgeStyle;rounded=0;orthogonalLoop=1;jettySize=auto;html=1;entryX=1;entryY=0.5;entryDx=0;entryDy=0;" parent="1" source="z0HUCPm2Fse18PRAuFVQ-54" target="z0HUCPm2Fse18PRAuFVQ-78" edge="1">
          <mxGeometry relative="1" as="geometry">
            <Array as="points">
              <mxPoint x="2070" y="700" />
            </Array>
          </mxGeometry>
        </mxCell>
        <mxCell id="z0HUCPm2Fse18PRAuFVQ-54" value="¿Ingresó ambos?" style="rhombus;whiteSpace=wrap;html=1;" parent="1" vertex="1">
          <mxGeometry x="2020" y="530" width="80" height="80" as="geometry" />
        </mxCell>
        <mxCell id="z0HUCPm2Fse18PRAuFVQ-55" style="edgeStyle=orthogonalEdgeStyle;rounded=0;orthogonalLoop=1;jettySize=auto;html=1;entryX=1;entryY=0.5;entryDx=0;entryDy=0;" parent="1" source="z0HUCPm2Fse18PRAuFVQ-56" edge="1">
          <mxGeometry relative="1" as="geometry">
            <Array as="points">
              <mxPoint x="2060" y="1060" />
              <mxPoint x="1030" y="1060" />
              <mxPoint x="1030" y="970" />
            </Array>
            <mxPoint x="1080.000000000009" y="970" as="targetPoint" />
          </mxGeometry>
        </mxCell>
        <mxCell id="z0HUCPm2Fse18PRAuFVQ-56" value="&lt;span style=&quot;color: rgb(0, 0, 0); font-family: Helvetica; font-size: 12px; font-style: normal; font-variant-ligatures: normal; font-variant-caps: normal; font-weight: 400; letter-spacing: normal; orphans: 2; text-align: center; text-indent: 0px; text-transform: none; widows: 2; word-spacing: 0px; -webkit-text-stroke-width: 0px; background-color: rgb(248, 249, 250); text-decoration-thickness: initial; text-decoration-style: initial; text-decoration-color: initial; float: none; display: inline !important;&quot;&gt;Obtener el número de links totales, únicos y rotos.&lt;/span&gt;" style="rounded=1;whiteSpace=wrap;html=1;" parent="1" vertex="1">
          <mxGeometry x="2000" y="890" width="120" height="60" as="geometry" />
        </mxCell>
        <mxCell id="z0HUCPm2Fse18PRAuFVQ-57" style="edgeStyle=orthogonalEdgeStyle;rounded=0;orthogonalLoop=1;jettySize=auto;html=1;" parent="1" source="z0HUCPm2Fse18PRAuFVQ-58" edge="1">
          <mxGeometry relative="1" as="geometry">
            <mxPoint x="1020" y="930" as="targetPoint" />
          </mxGeometry>
        </mxCell>
        <mxCell id="z0HUCPm2Fse18PRAuFVQ-58" value="&lt;span style=&quot;&quot;&gt;Error: &quot;No se encontraron links en los archivos&quot;&lt;/span&gt;" style="shape=document;whiteSpace=wrap;html=1;boundedLbl=1;" parent="1" vertex="1">
          <mxGeometry x="960" y="670" width="120" height="80" as="geometry" />
        </mxCell>
        <mxCell id="z0HUCPm2Fse18PRAuFVQ-59" style="edgeStyle=orthogonalEdgeStyle;rounded=0;orthogonalLoop=1;jettySize=auto;html=1;entryX=1;entryY=0.5;entryDx=0;entryDy=0;" parent="1" source="z0HUCPm2Fse18PRAuFVQ-60" edge="1">
          <mxGeometry relative="1" as="geometry">
            <Array as="points">
              <mxPoint x="2160" y="370" />
              <mxPoint x="2160" y="1060" />
              <mxPoint x="1030" y="1060" />
              <mxPoint x="1030" y="970" />
            </Array>
            <mxPoint x="1080.000000000009" y="970" as="targetPoint" />
          </mxGeometry>
        </mxCell>
        <mxCell id="z0HUCPm2Fse18PRAuFVQ-60" value="&lt;span style=&quot;&quot;&gt;Error...&lt;/span&gt;" style="shape=document;whiteSpace=wrap;html=1;boundedLbl=1;" parent="1" vertex="1">
          <mxGeometry x="540" y="330" width="120" height="80" as="geometry" />
        </mxCell>
        <mxCell id="z0HUCPm2Fse18PRAuFVQ-61" value="no" style="text;html=1;strokeColor=none;fillColor=none;align=center;verticalAlign=middle;whiteSpace=wrap;rounded=0;" parent="1" vertex="1">
          <mxGeometry x="470" y="330" width="60" height="30" as="geometry" />
        </mxCell>
        <mxCell id="z0HUCPm2Fse18PRAuFVQ-62" value="no" style="text;html=1;strokeColor=none;fillColor=none;align=center;verticalAlign=middle;whiteSpace=wrap;rounded=0;" parent="1" vertex="1">
          <mxGeometry x="490" y="490" width="60" height="30" as="geometry" />
        </mxCell>
        <mxCell id="z0HUCPm2Fse18PRAuFVQ-63" style="edgeStyle=orthogonalEdgeStyle;rounded=0;orthogonalLoop=1;jettySize=auto;html=1;entryX=0;entryY=0.5;entryDx=0;entryDy=0;" parent="1" source="z0HUCPm2Fse18PRAuFVQ-64" target="z0HUCPm2Fse18PRAuFVQ-23" edge="1">
          <mxGeometry relative="1" as="geometry" />
        </mxCell>
        <mxCell id="z0HUCPm2Fse18PRAuFVQ-64" value="Almacenar toda la ruta en un array" style="rounded=1;whiteSpace=wrap;html=1;" parent="1" vertex="1">
          <mxGeometry x="810" y="540" width="120" height="60" as="geometry" />
        </mxCell>
        <mxCell id="z0HUCPm2Fse18PRAuFVQ-65" style="edgeStyle=orthogonalEdgeStyle;rounded=0;orthogonalLoop=1;jettySize=auto;html=1;entryX=0;entryY=0.5;entryDx=0;entryDy=0;exitX=1;exitY=0.5;exitDx=0;exitDy=0;" parent="1" source="z0HUCPm2Fse18PRAuFVQ-14" target="z0HUCPm2Fse18PRAuFVQ-19" edge="1">
          <mxGeometry relative="1" as="geometry">
            <mxPoint x="490" y="764.9411764705883" as="sourcePoint" />
          </mxGeometry>
        </mxCell>
        <mxCell id="z0HUCPm2Fse18PRAuFVQ-66" style="edgeStyle=orthogonalEdgeStyle;rounded=0;orthogonalLoop=1;jettySize=auto;html=1;entryX=0;entryY=0.5;entryDx=0;entryDy=0;" parent="1" source="z0HUCPm2Fse18PRAuFVQ-67" target="z0HUCPm2Fse18PRAuFVQ-83" edge="1">
          <mxGeometry relative="1" as="geometry">
            <mxPoint x="959.9999999999918" y="970" as="targetPoint" />
            <Array as="points">
              <mxPoint x="670" y="970" />
            </Array>
          </mxGeometry>
        </mxCell>
        <mxCell id="z0HUCPm2Fse18PRAuFVQ-67" value="&lt;span style=&quot;&quot;&gt;Error: no se encontraron archivos de tipo .md&lt;/span&gt;" style="shape=document;whiteSpace=wrap;html=1;boundedLbl=1;" parent="1" vertex="1">
          <mxGeometry x="610" y="650" width="120" height="80" as="geometry" />
        </mxCell>
        <mxCell id="z0HUCPm2Fse18PRAuFVQ-68" value="no" style="text;html=1;strokeColor=none;fillColor=none;align=center;verticalAlign=middle;whiteSpace=wrap;rounded=0;" parent="1" vertex="1">
          <mxGeometry x="610" y="610" width="60" height="30" as="geometry" />
        </mxCell>
        <mxCell id="z0HUCPm2Fse18PRAuFVQ-69" style="edgeStyle=orthogonalEdgeStyle;rounded=0;orthogonalLoop=1;jettySize=auto;html=1;entryX=0;entryY=0.5;entryDx=0;entryDy=0;" parent="1" source="z0HUCPm2Fse18PRAuFVQ-70" target="z0HUCPm2Fse18PRAuFVQ-32" edge="1">
          <mxGeometry relative="1" as="geometry" />
        </mxCell>
        <mxCell id="z0HUCPm2Fse18PRAuFVQ-70" value="Crear un objeto por cada link" style="rounded=1;whiteSpace=wrap;html=1;" parent="1" vertex="1">
          <mxGeometry x="1290" y="540" width="120" height="60" as="geometry" />
        </mxCell>
        <mxCell id="z0HUCPm2Fse18PRAuFVQ-71" style="edgeStyle=orthogonalEdgeStyle;rounded=0;orthogonalLoop=1;jettySize=auto;html=1;" parent="1" source="z0HUCPm2Fse18PRAuFVQ-72" target="z0HUCPm2Fse18PRAuFVQ-7" edge="1">
          <mxGeometry relative="1" as="geometry">
            <Array as="points">
              <mxPoint x="600" y="270" />
              <mxPoint x="370" y="270" />
            </Array>
          </mxGeometry>
        </mxCell>
        <mxCell id="z0HUCPm2Fse18PRAuFVQ-72" value="convertir de ruta relativa a absoluta" style="rounded=1;whiteSpace=wrap;html=1;" parent="1" vertex="1">
          <mxGeometry x="540" y="110" width="120" height="60" as="geometry" />
        </mxCell>
        <mxCell id="z0HUCPm2Fse18PRAuFVQ-73" value="no" style="text;html=1;strokeColor=none;fillColor=none;align=center;verticalAlign=middle;whiteSpace=wrap;rounded=0;" parent="1" vertex="1">
          <mxGeometry x="480" y="100" width="60" height="30" as="geometry" />
        </mxCell>
        <mxCell id="z0HUCPm2Fse18PRAuFVQ-74" style="edgeStyle=orthogonalEdgeStyle;rounded=0;orthogonalLoop=1;jettySize=auto;html=1;entryX=0.5;entryY=0;entryDx=0;entryDy=0;" parent="1" source="z0HUCPm2Fse18PRAuFVQ-75" target="z0HUCPm2Fse18PRAuFVQ-50" edge="1">
          <mxGeometry relative="1" as="geometry" />
        </mxCell>
        <mxCell id="z0HUCPm2Fse18PRAuFVQ-75" value="Consulta HTTP a cada link" style="rounded=1;whiteSpace=wrap;html=1;" parent="1" vertex="1">
          <mxGeometry x="1640" y="780" width="120" height="60" as="geometry" />
        </mxCell>
        <mxCell id="z0HUCPm2Fse18PRAuFVQ-77" value="" style="edgeStyle=orthogonalEdgeStyle;rounded=0;orthogonalLoop=1;jettySize=auto;html=1;" parent="1" source="z0HUCPm2Fse18PRAuFVQ-78" target="z0HUCPm2Fse18PRAuFVQ-80" edge="1">
          <mxGeometry relative="1" as="geometry" />
        </mxCell>
        <mxCell id="n1vHllp_W1dIBB7KfZ7i-2" style="edgeStyle=orthogonalEdgeStyle;rounded=0;orthogonalLoop=1;jettySize=auto;html=1;exitX=0;exitY=0.5;exitDx=0;exitDy=0;fillColor=#f8cecc;strokeColor=#b85450;" edge="1" parent="1" source="z0HUCPm2Fse18PRAuFVQ-78">
          <mxGeometry relative="1" as="geometry">
            <mxPoint x="1570" y="700" as="targetPoint" />
            <Array as="points">
              <mxPoint x="1830" y="630" />
              <mxPoint x="1570" y="630" />
            </Array>
          </mxGeometry>
        </mxCell>
        <mxCell id="z0HUCPm2Fse18PRAuFVQ-78" value="Recorrer todos" style="rounded=1;whiteSpace=wrap;html=1;" parent="1" vertex="1">
          <mxGeometry x="1830" y="670" width="120" height="60" as="geometry" />
        </mxCell>
        <mxCell id="z0HUCPm2Fse18PRAuFVQ-79" value="" style="edgeStyle=orthogonalEdgeStyle;rounded=0;orthogonalLoop=1;jettySize=auto;html=1;" parent="1" source="z0HUCPm2Fse18PRAuFVQ-80" target="z0HUCPm2Fse18PRAuFVQ-42" edge="1">
          <mxGeometry relative="1" as="geometry" />
        </mxCell>
        <mxCell id="z0HUCPm2Fse18PRAuFVQ-80" value="Verificar cuántos se repiten" style="rounded=1;whiteSpace=wrap;html=1;" parent="1" vertex="1">
          <mxGeometry x="1830" y="780" width="120" height="60" as="geometry" />
        </mxCell>
        <mxCell id="z0HUCPm2Fse18PRAuFVQ-81" value="si" style="text;html=1;strokeColor=none;fillColor=none;align=center;verticalAlign=middle;whiteSpace=wrap;rounded=0;" parent="1" vertex="1">
          <mxGeometry x="310" y="100" width="60" height="30" as="geometry" />
        </mxCell>
        <mxCell id="z0HUCPm2Fse18PRAuFVQ-82" value="si" style="text;html=1;strokeColor=none;fillColor=none;align=center;verticalAlign=middle;whiteSpace=wrap;rounded=0;" parent="1" vertex="1">
          <mxGeometry x="310" y="420" width="60" height="30" as="geometry" />
        </mxCell>
        <mxCell id="z0HUCPm2Fse18PRAuFVQ-83" value="Fin" style="ellipse;whiteSpace=wrap;html=1;fillColor=#e1d5e7;strokeColor=#9673a6;" parent="1" vertex="1">
          <mxGeometry x="980.0000000000086" y="930" width="120" height="80" as="geometry" />
        </mxCell>
        <mxCell id="z0HUCPm2Fse18PRAuFVQ-84" value="si" style="text;html=1;strokeColor=none;fillColor=none;align=center;verticalAlign=middle;whiteSpace=wrap;rounded=0;" parent="1" vertex="1">
          <mxGeometry x="2007" y="615" width="60" height="30" as="geometry" />
        </mxCell>
      </root>
    </mxGraphModel>
  </diagram>
</mxfile>
